<?xml version="1.0" encoding="UTF-8"?>
<svg xmlns="http://www.w3.org/2000/svg" version="1.1" viewBox="0 0 900 900">
  <!-- Generator: Adobe Illustrator 29.6.1, SVG Export Plug-In . SVG Version: 2.1.1 Build 9)  -->
  <defs>
    <style>
      .st0 {
        fill: #fff;
      }

      .st1 {
        fill: #999;
      }
    </style>
  </defs>
  <g id="Layer_2">
    <circle class="st1" cx="450" cy="450" r="399.41"/>
  </g>
  <g id="Layer_3">
    <g>
      <path class="st0" d="M138.51,427.41l17.83,48.11c1.85,5.38,3.87,11.78,5.22,16.66h.34c1.51-4.88,3.2-11.1,5.21-16.99l16.15-47.78h15.65l-22.21,58.04c-10.6,27.93-17.83,42.23-27.93,50.97-7.23,6.39-14.47,8.92-18.17,9.59l-3.7-12.45c3.7-1.18,8.58-3.53,12.95-7.23,4.04-3.2,9.08-8.92,12.45-16.49.67-1.51,1.18-2.69,1.18-3.53s-.34-2.02-1.01-3.87l-30.11-75.03h16.15Z"/>
      <path class="st0" d="M284.37,467.45c0,30.11-20.86,43.23-40.54,43.23-22.04,0-39.03-16.15-39.03-41.89,0-27.25,17.83-43.23,40.38-43.23s39.2,16.99,39.2,41.89ZM219.77,468.29c0,17.83,10.26,31.29,24.73,31.29s24.73-13.29,24.73-31.63c0-13.79-6.9-31.29-24.39-31.29s-25.07,16.15-25.07,31.63Z"/>
      <path class="st0" d="M371.18,486.63c0,8.41.17,15.81.67,22.21h-13.12l-.84-13.29h-.34c-3.87,6.56-12.45,15.14-26.92,15.14-12.79,0-28.09-7.07-28.09-35.66v-47.61h14.8v45.09c0,15.48,4.71,25.91,18.17,25.91,9.93,0,16.82-6.9,19.51-13.46.84-2.19,1.35-4.88,1.35-7.57v-49.96h14.8v59.22Z"/>
      <path class="st0" d="M395.74,452.81c0-9.59-.17-17.83-.67-25.4h12.95l.5,15.98h.67c3.7-10.94,12.62-17.83,22.54-17.83,1.68,0,2.86.17,4.21.5v13.96c-1.51-.34-3.03-.5-5.05-.5-10.43,0-17.83,7.91-19.85,19.01-.34,2.02-.67,4.37-.67,6.9v43.4h-14.64v-56.02Z"/>
      <path class="st0" d="M486.42,389.39h14.8v119.44h-14.8v-119.44Z"/>
      <path class="st0" d="M599.81,467.45c0,30.11-20.86,43.23-40.54,43.23-22.04,0-39.03-16.15-39.03-41.89,0-27.25,17.83-43.23,40.38-43.23s39.2,16.99,39.2,41.89ZM535.21,468.29c0,17.83,10.26,31.29,24.73,31.29s24.73-13.29,24.73-31.63c0-13.79-6.9-31.29-24.39-31.29s-25.07,16.15-25.07,31.63Z"/>
      <path class="st0" d="M688.63,427.41c-.34,5.89-.67,12.45-.67,22.38v47.27c0,18.67-3.7,30.11-11.61,37.18-7.91,7.4-19.35,9.76-29.61,9.76s-20.52-2.36-27.08-6.73l3.7-11.27c5.38,3.36,13.79,6.39,23.89,6.39,15.14,0,26.24-7.91,26.24-28.43v-9.08h-.34c-4.54,7.57-13.29,13.63-25.91,13.63-20.19,0-34.66-17.16-34.66-39.7,0-27.59,18-43.23,36.67-43.23,14.13,0,21.87,7.4,25.4,14.13h.34l.67-12.28h12.95ZM673.32,459.54c0-2.52-.17-4.71-.84-6.73-2.69-8.58-9.93-15.65-20.69-15.65-14.13,0-24.22,11.94-24.22,30.79,0,15.98,8.07,29.27,24.06,29.27,9.08,0,17.33-5.72,20.52-15.14.84-2.52,1.18-5.38,1.18-7.91v-14.64Z"/>
      <path class="st0" d="M786.21,467.45c0,30.11-20.86,43.23-40.54,43.23-22.04,0-39.03-16.15-39.03-41.89,0-27.25,17.83-43.23,40.38-43.23s39.2,16.99,39.2,41.89ZM721.61,468.29c0,17.83,10.26,31.29,24.73,31.29s24.73-13.29,24.73-31.63c0-13.79-6.9-31.29-24.39-31.29s-25.07,16.15-25.07,31.63Z"/>
    </g>
  </g>
</svg>