<?xml version="1.0" encoding="UTF-8" standalone="no"?>
<!-- Generator: Adobe Illustrator 23.0.2, SVG Export Plug-In . SVG Version: 6.00 Build 0)  -->

<svg
   version="1.1"
   id="svg1"
   x="0px"
   y="0px"
   viewBox="0 0 320 100"
   style="enable-background:new 0 0 320 100;"
   xml:space="preserve"
   sodipodi:docname="testimonios.svg"
   inkscape:version="1.1.2 (0a00cf5339, 2022-02-04)"
   xmlns:inkscape="http://www.inkscape.org/namespaces/inkscape"
   xmlns:sodipodi="http://sodipodi.sourceforge.net/DTD/sodipodi-0.dtd"
   xmlns="http://www.w3.org/2000/svg"
   xmlns:svg="http://www.w3.org/2000/svg"><defs
   id="defs30" />
<style
   type="text/css"
   id="style2">
	.st0{enable-background:new    ;}
	.st1{fill:#5E7153;}
</style>
<sodipodi:namedview
   bordercolor="#000000"
   borderopacity="0.25"
   id="namedview1"
   inkscape:current-layer="g27"
   inkscape:cx="166.30302"
   inkscape:cy="120.1895"
   inkscape:deskcolor="#d1d1d1"
   inkscape:document-units="mm"
   inkscape:pagecheckerboard="0"
   inkscape:pageopacity="0.0"
   inkscape:showpageshadow="2"
   inkscape:window-height="1008"
   inkscape:window-maximized="1"
   inkscape:window-width="1920"
   inkscape:window-x="0"
   inkscape:window-y="0"
   inkscape:zoom="2.0384476"
   pagecolor="#ffffff"
   inkscape:pageshadow="2"
   showgrid="false">
	</sodipodi:namedview>
<g
   class="st0"
   id="g27">
	<path
   class="st1"
   d="M28.9,32.4v5h-0.4c0-0.1,0,0,0-0.1c0-2.5-4.7-4.5-11.1-4.5v26.6c0,7.4-0.1,10,3.1,10v0.4h-9.7v-0.4   c3.2,0,3.4-2.7,3.4-10V32.8c-6.4,0-11.1,2-11.1,4.5c0,0.1,0,0,0,0.1H2.8v-5H28.9z"
   id="path5"
   style="fill:#f9eec8;fill-opacity:1" />
	<path
   class="st1"
   d="M31.1,32.4h26.7v5h-0.4v-0.1c0-2.5-4.9-4.5-13.5-4.5h-6.2v16.1c1.1-1.1,2.6-1.7,4.3-1.7c3.7,0,5.8,2.3,9,2.3   c1.4,0,2.8-0.8,2.8-2.1h0.4c0,2.2-1.8,4.1-4.8,4.1c-4.6,0-6.5-3.2-9.1-3.3c-1.1,0-2,0.5-2.6,1.3v19.9h4.8c3.5,0,14.9-0.4,14.9-5.8   h0.4v6.2H31.1v-0.4c3.2,0,3.4-2.7,3.4-10V42.8c0-7.4-0.2-10-3.4-10V32.4z"
   id="path7"
   style="fill:#f9eec8;fill-opacity:1" />
	<path
   class="st1"
   d="M74.6,31.7c4.6,0,7.8,0.7,10.6,1.7v5h-0.4c0,0-2.3-6.3-10.3-6.3c-6.9,0-10.8,4.2-10.8,8.4   c0,10.2,23.6,6.6,23.6,19.7c0,5.2-5.4,10.3-14,10.3c-4.9,0-9.3-2.5-12.1-4.6v-5h0.4c0,0,4.9,8.9,13.8,8.9c5.5,0,9.7-4,9.7-8.1   c0-11.2-24-8.1-24-20.3C61.2,36.2,66,31.7,74.6,31.7z"
   id="path9"
   style="fill:#f9eec8;fill-opacity:1" />
	<path
   class="st1"
   d="M116.9,32.4v5h-0.4c0-0.1,0,0,0-0.1c0-2.5-4.7-4.5-11.1-4.5v26.6c0,7.4-0.1,10,3.1,10v0.4h-9.7v-0.4   c3.2,0,3.4-2.7,3.4-10V32.8c-6.4,0-11.1,2-11.1,4.5c0,0.1,0,0,0,0.1h-0.4v-5H116.9z"
   id="path11"
   style="fill:#f9eec8;fill-opacity:1" />
	<path
   class="st1"
   d="M119.1,32.4h10.1v0.4c-3.2,0-3.4,2.7-3.4,10v16.6c0,7.4,0.2,10,3.4,10v0.4h-10.1v-0.4c3.2,0,3.4-2.7,3.4-10   V42.8c0-7.4-0.2-10-3.4-10V32.4z"
   id="path13"
   style="fill:#f9eec8;fill-opacity:1" />
	<path
   class="st1"
   d="M137.4,32.4l14.3,30.1L163,32.4h6.6v0.4c-3.2,0-3.4,2.7-3.4,10v16.6c0,7.4,0.2,10,3.4,10v0.4h-10.1v-0.4   c3.2,0,3.4-2.7,3.4-10V33.6c-4,10.8-7.8,21.1-12.4,33.4h-0.3c-5.9-12.5-9.2-19.8-14.9-32l0,16v4.7c0,10.9,3.1,13.6,6.3,13.6v0.4   h-10.1v-0.4c3.2,0,3.4-2.7,3.4-10V42.8c0-7.4-0.2-10-3.4-10v-0.4H137.4z"
   id="path15"
   style="fill:#f9eec8;fill-opacity:1" />
	<path
   class="st1"
   d="M172.9,51.1c0-11.2,7.3-19.4,16.6-19.4s16.6,8.2,16.6,19.4c0,11.2-7.3,19.4-16.6,19.4S172.9,62.3,172.9,51.1z    M176.3,51.1c0,10.9,6,19,13.3,19c7.2,0,13.3-8.1,13.3-19c0-10.9-5.5-19-13.3-19S176.3,40.2,176.3,51.1z"
   id="path17"
   style="fill:#f9eec8;fill-opacity:1" />
	<path
   class="st1"
   d="M216,32.4l20.9,31.9V48c0-10.9-3.1-15.2-6.3-15.2v-0.4h10.1v0.4c-3.2,0-3.4,2.7-3.4,10v27.7h-0.4l-23.6-36   v19.6c0,10.9,3.1,15.2,6.3,15.2v0.4h-10.1v-0.4c3.2,0,3.4-2.7,3.4-10V42.8c0-7.4-0.2-10-3.4-10v-0.4H216z"
   id="path19"
   style="fill:#f9eec8;fill-opacity:1" />
	<path
   class="st1"
   d="M243,32.4h10.1v0.4c-3.2,0-3.4,2.7-3.4,10v16.6c0,7.4,0.2,10,3.4,10v0.4H243v-0.4c3.2,0,3.4-2.7,3.4-10V42.8   c0-7.4-0.2-10-3.4-10V32.4z"
   id="path21"
   style="fill:#f9eec8;fill-opacity:1" />
	<path
   class="st1"
   d="M256.4,51.1c0-11.2,7.3-19.4,16.6-19.4s16.6,8.2,16.6,19.4c0,11.2-7.3,19.4-16.6,19.4S256.4,62.3,256.4,51.1z    M259.8,51.1c0,10.9,6,19,13.3,19c7.2,0,13.3-8.1,13.3-19c0-10.9-5.5-19-13.3-19S259.8,40.2,259.8,51.1z"
   id="path23"
   style="fill:#f9eec8;fill-opacity:1" />
	<path
   class="st1"
   d="M307.5,31.7c4.6,0,7.8,0.7,10.6,1.7v5h-0.4c0,0-2.3-6.3-10.3-6.3c-6.9,0-10.8,4.2-10.8,8.4   c0,10.2,23.6,6.6,23.6,19.7c0,5.2-5.4,10.3-14,10.3c-4.9,0-9.3-2.5-12.1-4.6v-5h0.4c0,0,4.9,8.9,13.8,8.9c5.5,0,9.7-4,9.7-8.1   c0-11.2-24-8.1-24-20.3C294.1,36.2,298.9,31.7,307.5,31.7z"
   id="path25"
   style="fill:#f9eec8;fill-opacity:1" />
</g>
</svg>
