<?xml version="1.0" encoding="UTF-8"?>
<svg id="svg1" xmlns="http://www.w3.org/2000/svg" xmlns:svg="http://www.w3.org/2000/svg" xmlns:sodipodi="http://sodipodi.sourceforge.net/DTD/sodipodi-0.dtd" xmlns:inkscape="http://www.inkscape.org/namespaces/inkscape" version="1.1" viewBox="0 0 320 100">
  <!-- Generator: Adobe Illustrator 29.6.1, SVG Export Plug-In . SVG Version: 2.1.1 Build 9)  -->
  <defs>
    <style>
      .st0 {
        fill: #999;
      }
    </style>
  </defs>
  <sodipodi:namedview id="namedview1" bordercolor="#000000" borderopacity="0.25" inkscape:current-layer="g21" inkscape:cx="166.30302" inkscape:cy="120.1895" inkscape:deskcolor="#d1d1d1" inkscape:document-units="mm" inkscape:pagecheckerboard="0" inkscape:pageopacity="0.0" inkscape:pageshadow="2" inkscape:showpageshadow="2" inkscape:window-height="1008" inkscape:window-maximized="1" inkscape:window-width="1920" inkscape:window-x="0" inkscape:window-y="0" inkscape:zoom="2.0384476" pagecolor="#ffffff" showgrid="false"/>
  <g>
    <path class="st0" d="M76.19,74.62V31.28h-16.92v-8.5h44.93v8.5h-16.92v43.34h-11.09Z"/>
    <path class="st0" d="M109.53,74.62V22.79h11.09v51.84h-11.09Z"/>
    <path class="st0" d="M142.87,74.62V31.28h-16.92v-8.5h44.93v8.5h-16.92v43.34h-11.09Z"/>
    <polygon class="st0" points="212.2 66.13 212.2 74.62 176.2 74.62 176.2 22.79 187.29 22.79 187.29 66.13 212.2 66.13"/>
    <polygon class="st0" points="257.27 66.13 257.27 74.62 218.68 74.62 218.68 22.79 256.41 22.79 256.41 31.28 229.77 31.28 229.77 43.95 254.75 43.95 254.75 52.3 229.77 52.3 229.77 66.13 257.27 66.13"/>
  </g>
</svg>